<?xml version="1.0" encoding="utf-8"?>
<!-- Generator: Adobe Illustrator 24.0.3, SVG Export Plug-In . SVG Version: 6.00 Build 0)  -->
<svg version="1.1" id="Ebene_1" xmlns="http://www.w3.org/2000/svg" xmlns:xlink="http://www.w3.org/1999/xlink" x="0px" y="0px"
	 viewBox="0 0 1000 1000" style="enable-background:new 0 0 1000 1000;" xml:space="preserve">
<style type="text/css">
	.st0{fill:#7D83FF;}
</style>
<g>
	<path class="st0" d="M467.9,693.5c0,31.1-7.4,56.1-22.3,75.2c-14.9,19.1-35.8,33.2-62.9,42.3s-59,13.6-95.8,13.6H104.5V358.8h171.1
		c32.4,0,60.9,4.3,85.5,13s44.1,21.7,58.6,39.3c14.4,17.5,21.6,39.6,21.6,66.2c0,24.4-7.2,45.3-21.6,62.6
		c-11.9,14.3-27.2,25.8-46.1,34.5c-6.7-2.3-13.6-4.3-20.8-6c-21.3-4.9-43.3-7.3-65.9-7.3h-70.1v-17.3h46.7c12.9,0,23.8-2,32.9-6
		s16.1-9.7,21-17s7.3-16.3,7.3-27c0-16-5.3-28-16-35.9c-10.6-8-25.7-12-45.3-12h-46.6v97.9h-28.4v17.3h-0.1v61.2h28.5v115.2h57.2
		c14.6,0,27.7-1.9,39.3-5.7c11.5-3.8,20.7-10,27.6-18.6c6.9-8.7,10.3-20.5,10.3-35.6c0-9.8-2-18.2-6-25.3s-9.5-12.9-16.6-17.3
		c-7.1-4.4-15.2-7.7-24.3-9.7c-9.1-2-19.2-3-30.3-3h-57.2v-29.2h58.8c32.4,0,60.9-4.5,85.5-13.6c4.3-1.6,8.5-3.3,12.5-5.1
		c13.3,4.6,25.6,10.5,37.1,17.6c17.3,10.9,31.2,24.6,41.6,41.3C462.7,649.9,467.9,670,467.9,693.5z"/>
	<path class="st0" d="M373.6,574.4c-4,1.8-8.1,3.6-12.5,5.1c-24.6,9.1-53.1,13.6-85.5,13.6h-58.8v29.2h-28.5v-61.2h0.1v-17.3h28.4
		v17.3h70.1c22.6,0,44.6,2.4,65.9,7.3C359.9,570,366.9,572,373.6,574.4z"/>
</g>
<g>
	<path class="st0" d="M615.9,543.8h75.2c12.9,0,23.8-2,32.9-6c9.1-4,16.1-9.7,21-17s7.3-16.3,7.3-27c0-16-5.3-28-16-35.9
		c-10.6-8-25.7-12-45.3-12h-46.6v291.6h57.2c14.6,0,27.7-1.9,39.3-5.7c11.5-3.8,20.7-10,27.6-18.6c6.9-8.7,10.3-20.5,10.3-35.6
		c0-9.8-2-18.2-6-25.3s-9.5-12.9-16.6-17.3c-7.1-4.4-15.2-7.7-24.3-9.7s-19.2-3-30.3-3h-85.9v-61.2h98.7c22.6,0,44.6,2.4,65.9,7.3
		c21.3,4.9,40.6,12.8,57.9,23.6c17.3,10.9,31.2,24.6,41.6,41.3c10.4,16.6,15.6,36.7,15.6,60.2c0,31.1-7.4,56.1-22.3,75.2
		c-14.9,19.1-35.8,33.2-62.9,42.3c-27.1,9.1-59,13.6-95.8,13.6H531.9V358.8H703c32.4,0,60.9,4.3,85.5,13s44.1,21.7,58.6,39.3
		c14.4,17.5,21.6,39.6,21.6,66.2c0,24.4-7.2,45.3-21.6,62.6c-14.4,17.3-33.9,30.5-58.6,39.6c-24.6,9.1-53.1,13.6-85.5,13.6h-87.2
		L615.9,543.8L615.9,543.8z"/>
</g>
</svg>
